#!OML:ASF Y:\EmotionMaleHayes\Project 1\Capture day 1\Session 1\Male1.ASF
:FULLY-SPECIFIED
:DEGREES
213
root 3.67089 16.2806 -0.565551 8.32969 70.3704 346.286
lowerback 26.2973 -3.5066 -0.385883
upperback 10.3005 -3.33987 7.10331
thorax -2.56523 -1.5382 9.00216
lowerneck -18.6961 12.2041 14.0723
upperneck 15.2162 14.863 -10.0737
head 9.70455 6.78353 -3.47892
rclavicle 6.08281e-014 -8.60241e-014
rhumerus -33.5798 4.31364 -13.0264
rradius 63.0775
rwrist -22.9179
rhand -25.6899 -29.4125
rfingers 7.12502
rthumb 0.845233 -59.3906
lclavicle 6.08281e-014 -8.60241e-014
lhumerus 7.50269 -25.1224 18.1948
lradius 71.3558
lwrist 3.42126
lhand -33.091 -27.7063
lfingers 7.12502
lthumb -6.30205 2.18
rfemur -70.4113 -4.25327 19.9569
rtibia 65.8799
rfoot -371.773 15.2218
rtoes -9.88747
lfemur 8.47425 14.888 -44.2108
ltibia 11.216
lfoot 366.555 -4.095
ltoes 4.03673
214
root 4.07763 16.241 -0.65737 9.91435 69.3507 347.039
lowerback 25.0486 -3.52321 -0.980135
upperback 10.2658 -3.57869 7.27797
thorax -1.90777 -1.71455 9.51831
lowerneck -17.6514 12.5409 13.9087
upperneck 14.3559 15.4658 -10.2004
head 9.29713 7.09107 -3.44116
rclavicle -1.39149e-015 2.86747e-014
rhumerus -32.9816 3.4526 -14.605
rradius 65.736
rwrist -23.5692
rhand -25.0908 -28.5495
rfingers 7.12502
rthumb 1.42389 -58.5245
lclavicle -1.39149e-015 2.86747e-014
lhumerus 7.19177 -26.1663 23.1447
lradius 71.0331
lwrist 2.26534
lhand -32.4827 -27.1484
lfingers 7.12502
lthumb -5.71476 2.75456
rfemur -71.2634 -3.55158 22.362
rtibia 65.001
rfoot -368.811 19.7857
rtoes 0.141802
lfemur 8.66589 14.3408 -44.4794
ltibia 13.1853
lfoot 365.627 -2.61784
ltoes 3.50988
215
root 4.47703 16.1851 -0.741505 12.4667 68.7284 348.956
lowerback 23.7181 -3.61555 -1.61745
upperback 10.1952 -3.93166 7.13472
thorax -1.24169 -1.94346 9.70812
lowerneck -16.4333 12.8378 14.2063
upperneck 13.4616 15.9012 -10.2719
head 8.8658 7.35924 -3.49706
rclavicle 5.86415e-015 -4.17448e-015
rhumerus -33.093 2.3427 -16.8378
rradius 68.25
rwrist -23.9895
rhand -24.4216 -26.906
rfingers 7.12502
rthumb 2.07014 -56.8757
lclavicle 5.86415e-015 -4.17448e-015
lhumerus 6.95652 -27.2094 28.3449
lradius 70.3686
lwrist 0.614729
lhand -31.9934 -26.6079
lfingers 7.12502
lthumb -5.24239 3.30728
rfemur -71.6607 -3.08513 23.515
rtibia 64.4884
rfoot -366.927 20.6433
rtoes 3.82621
lfemur 8.98974 14.1864 -44.6989
ltibia 15.6638
lfoot 365.534 -1.90926
ltoes 5.17517
216
root 4.87278 16.1213 -0.814938 15.4748 68.442 351.775
lowerback 22.6369 -3.70486 -2.23764
upperback 10.1702 -4.26049 6.65252
thorax -0.674785 -2.14533 9.50455
lowerneck -15.2481 13.0135 14.9653
upperneck 12.6501 16.0173 -10.0261
head 8.44282 7.52281 -3.57246
rclavicle -2.3059e-014 4.44284e-014
rhumerus -34.0186 0.763212 -19.8842
rradius 71.1607
rwrist -24.0277
rhand -23.6541 -27.0175
rfingers 7.12502
rthumb 2.81137 -56.9787
lclavicle -2.3059e-014 4.44284e-014
lhumerus 7.19389 -28.8827 32.9112
lradius 69.5927
lwrist -0.698836
lhand -31.5359 -25.5609
lfingers 7.12502
lthumb -4.8006 4.36475
rfemur -71.2599 -2.92052 23.6606
rtibia 63.7973
rfoot -365.574 19.9912
rtoes 6.57427
lfemur 9.66041 13.8418 -44.9118
ltibia 18.4723
lfoot 365.143 -1.2202
ltoes 3.83113
217
root 5.27234 16.0472 -0.879127 18.6701 68.3007 355.278
lowerback 21.956 -3.73669 -3.19253
upperback 10.1468 -4.53845 6.25058
thorax -0.264147 -2.32926 9.60839
lowerneck -14.2333 13.0991 15.194
upperneck 12.1316 16.0767 -9.37844
head 8.0625 7.6536 -3.4442
rclavicle 1.70955e-014 2.29596e-014
rhumerus -34.8093 -0.855511 -22.9968
rradius 73.6245
rwrist -23.5492
rhand -22.8401 -26.6808
rfingers 7.12502
rthumb 3.5975 -56.6302
lclavicle 1.70955e-014 2.29596e-014
lhumerus 5.83234 -29.5962 39.2779
lradius 68.735
lwrist -3.56345
lhand -30.7046 -24.4468
lfingers 7.12502
lthumb -3.99787 5.49548
rfemur -69.8122 -2.80535 22.636
rtibia 62.6939
rfoot -364.055 17.6134
rtoes 13.0429
lfemur 10.6652 12.9042 -45.2711
ltibia 22.4349
lfoot 363.642 -0.349579
ltoes 2.10422
218
root 5.67129 15.9522 -0.935697 21.6564 68.1238 358.525
lowerback 21.2317 -3.75319 -4.2987
upperback 9.99303 -4.80199 6.08711
thorax 0.0745072 -2.51871 10.066
lowerneck -13.5325 13.2155 14.8823
upperneck 12.1961 16.2526 -8.49946
head 7.879 7.815 -3.12656
rclavicle 2.83268e-014 2.89232e-014
rhumerus -35.0635 -2.04894 -25.9269
rradius 75.5438
rwrist -23.2529
rhand -22.3151 -25.794
rfingers 7.12502
rthumb 4.1045 -55.7343
lclavicle 2.83268e-014 2.89232e-014
lhumerus 3.64376 -30.9874 45.9095
lradius 67.7328
lwrist -4.58795
lhand -30.2847 -23.4492
lfingers 7.12502
lthumb -3.59239 6.50028
rfemur -68.0025 -2.40439 21.1573
rtibia 61.3398
rfoot -364.862 15.5889
rtoes 26.2958
lfemur 11.4852 11.7111 -45.4375
ltibia 26.0647
lfoot 363.3 1.04911
ltoes 4.51673
219
root 6.07127 15.8477 -1.00085 24.6377 68.6206 361.821
lowerback 20.6555 -4.03569 -4.70472
upperback 9.74582 -5.26335 5.8774
thorax 0.206009 -2.7635 10.1067
lowerneck -13.1905 13.2941 14.6957
upperneck 12.604 16.2723 -7.34572
head 7.83753 7.91616 -2.74014
rclavicle -2.48481e-014 5.51627e-015
rhumerus -35.9853 -3.16215 -29.035
rradius 77.823
rwrist -23.2382
rhand -22.2422 -24.9445
rfingers 7.12502
rthumb 4.17488 -54.8833
lclavicle -2.48481e-014 5.51627e-015
lhumerus 1.14603 -32.6014 52.3606
lradius 66.6258
lwrist -5.38666
lhand -29.9443 -22.0923
lfingers 7.12502
lthumb -3.26368 7.8625
rfemur -65.6299 -2.42368 19.1439
rtibia 61.1013
rfoot -373.239 9.41332
rtoes 22.5201
lfemur 12.3824 10.6228 -44.9605
ltibia 30.2782
lfoot 363.137 2.00546
ltoes 9.18435
220
root 6.46555 15.7439 -1.05385 27.7157 69.1592 365.406
lowerback 20.5689 -4.08591 -5.55732
upperback 9.37567 -5.49253 5.96829
thorax 0.00401587 -2.89834 10.7604
lowerneck -13.1139 13.2132 14.1247
upperneck 13.168 16.1073 -6.14146
head 7.83854 7.91089 -2.29793
rclavicle -1.01629e-014 1.10872e-013
rhumerus -36.5905 -4.13829 -31.9611
rradius 79.73
rwrist -23.2549
rhand -22.3771 -24.8501
rfingers 7.12502
rthumb 4.04464 -54.7914
lclavicle -1.01629e-014 1.10872e-013
lhumerus -2.22955 -33.7435 59.9154
lradius 65.4648
lwrist -6.4183
lhand -29.5281 -22.6451
lfingers 7.12502
lthumb -2.86172 7.31548
rfemur -62.7995 -2.18364 16.7618
rtibia 60.7426
rfoot -381.257 1.06515
rtoes -13.4374
lfemur 13.3552 9.72725 -44.1033
ltibia 34.8182
lfoot 362.531 2.86621
ltoes 8.14802
221
root 6.84847 15.6411 -1.09611 31.2206 69.7277 369.546
lowerback 20.7472 -4.14965 -6.61569
upperback 8.95548 -5.78729 6.01938
thorax -0.340832 -3.05775 11.5355
lowerneck -12.8846 13.1868 13.7688
upperneck 13.5066 16.0524 -5.34879
head 7.80758 7.93891 -2.0131
rclavicle -4.25399e-014 4.96962e-015
rhumerus -36.7436 -4.95515 -35.2702
rradius 81.093
rwrist -23.3319
rhand -22.5986 -25.0434
rfingers 7.12502
rthumb 3.83074 -54.9887
lclavicle -4.25399e-014 4.96962e-015
lhumerus -6.38675 -34.3116 67.5209
lradius 64.3038
lwrist -7.18545
lhand -29.7902 -23.021
lfingers 7.12502
lthumb -3.11484 6.93595
rfemur -60.128 -1.66528 14.0064
rtibia 60.5221
rfoot -383.953 2.51091
rtoes -5.77302
lfemur 14.2272 8.93589 -42.9783
ltibia 39.4872
lfoot 361.561 4.13244
ltoes 5.05753
222
root 7.21194 15.5399 -1.14763 34.1101 70.3514 372.966
lowerback 21.1906 -4.10635 -7.27887
upperback 8.50358 -5.8876 6.02029
thorax -0.95425 -3.07809 12.023
lowerneck -12.67 13.1786 13.8727
upperneck 13.5328 15.9792 -4.91841
head 7.74494 7.95018 -1.91407
rclavicle 1.49089e-014 -6.75868e-014
rhumerus -37.0286 -5.92156 -38.8635
rradius 82.3187
rwrist -23.6231
rhand -22.841 -24.9171
rfingers 7.12502
rthumb 3.5966 -54.8665
lclavicle 1.49089e-014 -6.75868e-014
lhumerus -10.6108 -34.9655 74.3524
lradius 63.0298
lwrist -7.22246
lhand -30.8021 -23.9462
lfingers 7.12502
lthumb -4.092 5.99422
rfemur -58.2016 -1.06046 11.744
rtibia 60.8934
rfoot -385.039 -1.71596
rtoes -9.67177
lfemur 14.7761 7.97858 -41.4141
ltibia 44.3508
lfoot 360.696 5.86261
ltoes 6.22619
